<svg width="20" height="12" viewBox="0 0 20 12" fill="none" xmlns="http://www.w3.org/2000/svg">
<path d="M10.01 3.98435C8.91109 3.98435 8.01199 4.88688 8.01199 5.98997C8.01199 7.09307 8.91109 7.9956 10.01 7.9956C11.1089 7.9956 12.008 7.09307 12.008 5.98997C12.008 4.88688 11.1089 3.98435 10.01 3.98435ZM20 5.95989C20 5.94986 20 5.93983 20 5.9298V5.91978C20 5.90975 20 5.90975 20 5.89972C20 5.88969 20 5.88969 20 5.87966C19.98 5.71921 19.9001 5.55876 19.7902 5.43843C19.1509 4.63618 18.3916 3.92418 17.6224 3.27235C15.964 1.86841 14.0559 0.685097 11.958 0.213775C10.7493 -0.0569842 9.52048 -0.0670124 8.3017 0.163634C7.19281 0.364197 6.12388 0.805434 5.12488 1.34695C3.55644 2.19934 2.12787 3.3626 0.879121 4.67629C0.649351 4.92699 0.41958 5.16767 0.20979 5.43843C-0.0699301 5.78941 -0.0699301 6.21059 0.20979 6.56157C0.849151 7.36382 1.60839 8.07582 2.37762 8.72765C4.03596 10.1316 5.94406 11.3049 8.04196 11.7862C9.25075 12.057 10.4795 12.067 11.6983 11.8364C12.8072 11.6258 13.8761 11.1845 14.8751 10.643C16.4436 9.79063 17.8721 8.62737 19.1209 7.31368C19.3506 7.07301 19.5804 6.82231 19.7902 6.56157C19.9001 6.44124 19.97 6.29082 20 6.12034C20 6.11031 20 6.11031 20 6.10028C20 6.09025 20 6.09025 20 6.08022V6.0702C20 6.06017 20 6.05014 20 6.04011C20 6.03008 20 6.01003 20 6C20 5.97994 20 5.96992 20 5.95989ZM10.01 10.0012C7.8022 10.0012 6.01399 8.20619 6.01399 5.98997C6.01399 3.77376 7.8022 1.97872 10.01 1.97872C12.2178 1.97872 14.006 3.77376 14.006 5.98997C14.006 8.20619 12.2178 10.0012 10.01 10.0012Z" fill="#4A4B57"/>
</svg>
